<?xml version="1.0" encoding="utf-8"?>
<!-- Generator: Adobe Illustrator 21.0.0, SVG Export Plug-In . SVG Version: 6.00 Build 0)  -->
<svg version="1.1" id="Capa_1" xmlns="http://www.w3.org/2000/svg" xmlns:xlink="http://www.w3.org/1999/xlink" x="0px" y="0px"
	 viewBox="0 0 467.2 467.2" style="enable-background:new 0 0 467.2 467.2;" xml:space="preserve">
<style type="text/css">
	.st0{fill:#F2EDDC;}
</style>
<g>
	<path class="st0" d="M391.1,210.1c-10.3,0-20,2.1-29,5.8l-4.2-7.9c10.3-4.4,21.5-6.8,33.2-6.8c14.5,0,28.9,3.7,41.5,10.8
		c3.6,2,8.2,0.7,10.2-2.9c2-3.6,0.7-8.2-2.9-10.2c-14.8-8.3-31.7-12.7-48.8-12.7c-14.2,0-27.8,3-40.3,8.5l-7.4-13.9
		c0.7,0,1.4,0.1,2.1,0.1h17.4c4.1,0,7.5-3.4,7.5-7.5v-48.5c0-4.1-3.4-7.5-7.5-7.5h-17.4c-11.8,0-22,6.6-27.2,16.3l-13.2-24.8
		c-1.3-2.4-3.8-4-6.6-4h-35.3c-4.1,0-7.5,3.4-7.5,7.5s3.4,7.5,7.5,7.5h30.8l12.7,23.9c-1.6-1.2-3.4-2.3-5.2-3.3
		c-11.3-5.9-25-6.3-36.5-0.9l-23.4,10.8c-8.5,3.9-15.1,10.4-19.3,18.1c-6.7-7.4-16.1-12.5-26.7-13.7L81.7,141.9l0,0
		c-5.8-0.7-11.6,1.2-16,5.1c-4.4,3.9-6.9,9.5-6.9,15.3v32.9c-1.4,0.6-2.8,1.3-4.2,2C28.8,210.6,10,234.4,3.2,262.5
		c-1,4,1.5,8.1,5.5,9.1c0.6,0.1,1.2,0.2,1.8,0.2c3.4,0,6.4-2.3,7.3-5.7c5.8-23.9,21.8-44.2,43.8-55.5c7.9-4,16.9-6.2,26.1-6.2h10.4
		h120.3v21.8h-71.3c-12.9-10-29.1-16.1-46.6-16.1c-39.1,0-71.6,29.9-75.6,68H7.5c-4.1,0-7.5,3.4-7.5,7.5v24.9c0,4.1,3.4,7.5,7.5,7.5
		h23.7c12.3,26.7,39.4,44.2,69.1,44.2s56.8-17.6,69.1-44.2h51.7c16.4,0,29.8-12.5,31.4-28.5c13.9-5,25.7-15,32.9-28.5l35.5-69.3
		c2-5.3,2.8-10.9,2.6-16.3l14.1,26.4c-18.8,11.9-33.6,30-41.1,52.1c-1.3,3.9,0.8,8.2,4.7,9.5c0.8,0.3,1.6,0.4,2.4,0.4
		c3.1,0,6-2,7.1-5.1c6.3-18.4,18.5-33.6,34-43.7l4.2,7.9c-20.4,13.7-33.9,36.9-33.9,63.3c0,42,34.1,76.1,76.1,76.1
		s76.1-34.1,76.1-76.1S433,210.1,391.1,210.1z M329.7,148.2c0-8.7,7.1-15.8,15.8-15.8h9.9v33.5h-9.9c-8.7,0-15.8-7.1-15.8-15.8
		V148.2z M247.8,164l23.4-10.8c7.4-3.4,16.1-3.2,23.3,0.6c11.7,6.2,17,20.1,12.4,32.5l-1.2,3.1h-73.2c-0.1-0.6-0.2-1.1-0.3-1.7
		C232.5,177.7,238.4,168.4,247.8,164z M97.9,189.4H87.6H73.9v-27.1c0-2.2,1.2-3.5,1.8-4.1c0.7-0.6,2.2-1.6,4.3-1.4l0,0l113.8,12.9
		c11.3,1.3,20.3,9.3,23.3,19.7L97.9,189.4L97.9,189.4z M175.9,278.1c-1.5-13.7-6.6-26.3-14.4-36.9h30.5l19.2,36.9H175.9z
		 M100.3,225.1c30.8,0,56.5,23.1,60.5,53h-121C43.8,248.3,69.5,225.1,100.3,225.1z M100.3,347.3c-21.4,0-41.2-11.4-52.1-29.2h9.5
		c10,13.5,25.7,21.4,42.6,21.4c16.9,0,32.6-7.9,42.6-21.4h9.5C141.5,335.9,121.7,347.3,100.3,347.3z M79.2,318h42.3
		c-6.2,4.1-13.5,6.4-21.1,6.4C92.6,324.4,85.3,322.1,79.2,318z M236.2,293.1c-2.5,5.8-8.4,9.9-15.1,9.9H15v-9.9H236.2z M272.1,253.9
		c-7.9,14.9-23.3,24.2-40.2,24.2h-3.8L209,241.2h16.7c4.1,0,7.5-3.4,7.5-7.5v-29.2h65.2L272.1,253.9z M391.1,347.3
		c-33.7,0-61.1-27.4-61.1-61.1c0-20.6,10.3-38.9,26-49.9l3.7,7c-13.2,9.7-21.8,25.3-21.8,42.9c0,29.3,23.9,53.2,53.2,53.2
		s53.2-23.9,53.2-53.2S420.4,233,391.1,233c-6.4,0-12.5,1.1-18.2,3.2l-3.7-7c6.8-2.6,14.2-4.1,21.9-4.1c33.7,0,61.1,27.4,61.1,61.1
		S424.8,347.3,391.1,347.3z M375.1,272.2c1.4,2.5,3.9,4,6.6,4c1.2,0,2.4-0.3,3.5-0.9c3.7-1.9,5-6.5,3.1-10.1l-8.3-15.6
		c3.5-1.1,7.2-1.6,11-1.6c21.1,0,38.2,17.1,38.2,38.2s-17.1,38.2-38.2,38.2s-38.2-17.1-38.2-38.2c0-11.9,5.5-22.5,14-29.5
		L375.1,272.2z"/>
	<path class="st0" d="M384.2,289c2,4.8,8.5,6.2,12.2,2.4c2.9-2.8,2.9-7.8,0-10.6c-2.5-2.5-6.6-2.9-9.5-0.9
		C384,281.9,382.8,285.8,384.2,289C384.3,289.5,384,288.6,384.2,289z"/>
</g>
</svg>
